<mxfile host="app.diagrams.net" modified="2023-10-02T14:16:17.115Z" agent="Mozilla/5.0 (Windows NT 10.0; Win64; x64; rv:109.0) Gecko/20100101 Firefox/118.0" version="22.0.0" etag="HH597585y3JbzyPY-hiv" type="github">
  <diagram name="Page-1" id="4sOASac9a4JozTkC4s38">
    <mxGraphModel>
      <root>
        <mxCell id="0" />
        <mxCell id="1" parent="0" />
      </root>
    </mxGraphModel>
  </diagram>
</mxfile>
